# xmcd
#
# Track frame offsets: 
#        150
#        12032
#        17600
#        27282
#        38725
#        52445
#        61895
#        71945
#        80232
#        95207
#        108492
#        118722
#        131742
#        144292
#        153855
#        167527
#        178632
#        190412
#        201955
#        215610
#        229487
#        241400
#        253012
#        263890
#        280782
#
# Disc length: 3875 seconds
#
# Revision: 2
# Processed by: cddbd v1.5.2PL0 Copyright (c) Steve Scherf et al.
# Submitted via: ExactAudioCopy v1.0b3
#
DISCID=770f2119
DTITLE=Nelson, Willie - Is There Something On Your Mind
DYEAR=1900
DGENRE=Country
TTITLE0=Is There Something On Your Mind
TTITLE1=The Ghost
TTITLE2=Let's Pretend
TTITLE3=I'm Gonna Lose A Lot Of Teardrops
TTITLE4=A Moment Isn't Very Long
TTITLE5=One Step Beyond
TTITLE6=I Didn't Sleep A Wink
TTITLE7=You Wouldn't Cross The Street To Say Goodbye
TTITLE8=Face Of A Fighter
TTITLE9=If I Don't Understand
TTITLE10=Broken Promises
TTITLE11=Pages
TTITLE12=Shelter Of My Arms
TTITLE13=Building Heartaches
TTITLE14=Everything But You
TTITLE15=Go Away
TTITLE16=December Days
TTITLE17=Suffer In Silence
TTITLE18=You'll Always Have Someone
TTITLE19=Tomorrow In Sight
TTITLE20=I Hope So
TTITLE21=Some Other Time
TTITLE22=Blame It On The Times
TTITLE23=I Let My Mind Wander
TTITLE24=A New Way To Cry
EXTD=
EXTT0=
EXTT1=
EXTT2=
EXTT3=
EXTT4=
EXTT5=
EXTT6=
EXTT7=
EXTT8=
EXTT9=
EXTT10=
EXTT11=
EXTT12=
EXTT13=
EXTT14=
EXTT15=
EXTT16=
EXTT17=
EXTT18=
EXTT19=
EXTT20=
EXTT21=
EXTT22=
EXTT23=
EXTT24=
PLAYORDER=
